<svg width="222.2" height="73" viewBox="0 0 222.2 73" xmlns="http://www.w3.org/2000/svg"><g id="svgGroup" stroke-linecap="round" fill-rule="evenodd" font-size="9pt" stroke="#000" stroke-width="0.25mm" fill="black" style="stroke:#000;stroke-width:0.25mm;fill:black"><path d="M 0 71.2 L 0 68 L 3.1 68 A 10.294 10.294 0 0 0 5.787 67.665 A 8.006 8.006 0 0 0 8.65 66.25 Q 10.544 64.777 12.332 62.276 A 29.654 29.654 0 0 0 13 61.3 L 29.9 36 L 15 8.4 Q 13.534 5.664 12.021 4.456 A 6.03 6.03 0 0 0 11.95 4.4 A 4.782 4.782 0 0 0 10.576 3.681 Q 9.278 3.231 7.366 3.202 A 17.568 17.568 0 0 0 7.1 3.2 L 1 3.2 L 1 0 L 32 0 L 32 3.2 L 26 3.2 A 3.156 3.156 0 0 0 25.332 3.264 Q 24.367 3.474 24.225 4.369 A 2.105 2.105 0 0 0 24.2 4.7 A 4.166 4.166 0 0 0 24.26 5.386 A 5.591 5.591 0 0 0 24.4 6 Q 24.6 6.7 25 7.3 L 35.8 27.3 L 45.3 13.1 Q 46.89 10.716 47.216 8.521 A 7.616 7.616 0 0 0 47.3 7.4 A 3.835 3.835 0 0 0 46.153 4.648 A 5.2 5.2 0 0 0 45.95 4.45 A 4.597 4.597 0 0 0 43.647 3.313 A 6.561 6.561 0 0 0 42.4 3.2 L 39.3 3.2 L 39.3 0 L 66.3 0 L 66.3 3.2 L 61.8 3.2 Q 59.093 3.2 57.16 4.136 A 7.666 7.666 0 0 0 56.75 4.35 A 8.995 8.995 0 0 0 54.846 5.804 Q 54.119 6.521 53.444 7.454 A 16.672 16.672 0 0 0 53 8.1 L 37.7 31.1 L 55.4 63.6 A 17.468 17.468 0 0 0 56.231 64.948 Q 57.129 66.256 58.027 66.927 A 4.684 4.684 0 0 0 58.2 67.05 A 5.429 5.429 0 0 0 60.352 67.898 A 7.321 7.321 0 0 0 61.6 68 L 67.8 68 L 67.8 71.2 L 36.8 71.2 L 36.8 68 L 42.8 68 A 5.197 5.197 0 0 0 43.528 67.953 Q 43.902 67.899 44.202 67.787 A 1.954 1.954 0 0 0 44.85 67.4 Q 45.5 66.8 45.5 65.9 A 4.166 4.166 0 0 0 45.44 65.214 A 5.591 5.591 0 0 0 45.3 64.6 Q 45.1 63.9 44.8 63.4 L 32 39.8 L 20.5 57.3 A 23.966 23.966 0 0 0 19.32 59.281 Q 18.239 61.331 18.043 62.92 A 5.567 5.567 0 0 0 18 63.6 Q 18 65.4 18.9 66.7 A 2.928 2.928 0 0 0 21.034 67.965 A 4.424 4.424 0 0 0 21.6 68 L 27 68 L 27 71.2 L 0 71.2 Z M 110.3 73 L 87 7.6 A 11.393 11.393 0 0 0 86.422 6.252 Q 86.077 5.583 85.679 5.08 A 4.441 4.441 0 0 0 84.7 4.15 A 5.228 5.228 0 0 0 82.987 3.409 Q 82.292 3.239 81.481 3.207 A 9.715 9.715 0 0 0 81.1 3.2 L 74.8 3.2 L 74.8 0 L 106.8 0 L 106.8 3.2 L 100.2 3.2 A 4.361 4.361 0 0 0 98.942 3.375 A 3.622 3.622 0 0 0 97.8 3.95 A 3.09 3.09 0 0 0 97.273 4.443 A 1.922 1.922 0 0 0 96.8 5.7 A 6.358 6.358 0 0 0 97.152 7.763 A 7.211 7.211 0 0 0 97.2 7.9 L 114.3 56 L 127.5 15.4 A 31.856 31.856 0 0 0 128.231 12.602 Q 128.7 10.375 128.7 8.5 A 6.491 6.491 0 0 0 128.295 6.183 A 6.004 6.004 0 0 0 127.55 4.8 A 3.541 3.541 0 0 0 125.799 3.529 Q 125.188 3.313 124.432 3.239 A 8.54 8.54 0 0 0 123.6 3.2 L 118.2 3.2 L 118.2 0 L 145.2 0 L 145.2 3.2 L 141.5 3.2 Q 138 3.2 136.1 5.25 A 12.915 12.915 0 0 0 134.171 8.005 A 17.442 17.442 0 0 0 133.1 10.5 L 112.8 73 L 110.3 73 Z M 153.8 71.2 L 153.8 68 L 161 68 Q 163.142 68 163.585 66.3 A 3.978 3.978 0 0 0 163.7 65.3 L 163.7 5.9 A 4.773 4.773 0 0 0 163.646 5.153 Q 163.585 4.772 163.457 4.469 A 1.917 1.917 0 0 0 163.05 3.85 Q 162.558 3.358 161.635 3.238 A 4.956 4.956 0 0 0 161 3.2 L 153.8 3.2 L 153.8 0 L 182.8 0 L 182.8 3.2 L 175.6 3.2 A 4.773 4.773 0 0 0 174.853 3.254 Q 174.472 3.315 174.169 3.443 A 1.917 1.917 0 0 0 173.55 3.85 Q 173.058 4.342 172.938 5.265 A 4.956 4.956 0 0 0 172.9 5.9 L 172.9 65.3 Q 172.9 67.442 174.6 67.885 A 3.978 3.978 0 0 0 175.6 68 L 182.8 68 L 182.8 71.2 L 153.8 71.2 Z M 193.2 71.2 L 193.2 68 L 200.4 68 Q 202.542 68 202.985 66.3 A 3.978 3.978 0 0 0 203.1 65.3 L 203.1 5.9 A 4.773 4.773 0 0 0 203.046 5.153 Q 202.985 4.772 202.857 4.469 A 1.917 1.917 0 0 0 202.45 3.85 Q 201.958 3.358 201.035 3.238 A 4.956 4.956 0 0 0 200.4 3.2 L 193.2 3.2 L 193.2 0 L 222.2 0 L 222.2 3.2 L 215 3.2 A 4.773 4.773 0 0 0 214.253 3.254 Q 213.872 3.315 213.569 3.443 A 1.917 1.917 0 0 0 212.95 3.85 Q 212.458 4.342 212.338 5.265 A 4.956 4.956 0 0 0 212.3 5.9 L 212.3 65.3 Q 212.3 67.442 214 67.885 A 3.978 3.978 0 0 0 215 68 L 222.2 68 L 222.2 71.2 L 193.2 71.2 Z" vector-effect="non-scaling-stroke"/></g></svg>